<?xml version="1.0" encoding="utf-8"?>
<!-- Generator: Adobe Illustrator 19.1.1, SVG Export Plug-In . SVG Version: 6.00 Build 0)  -->
<svg version="1.1" id="Layer_1" xmlns="http://www.w3.org/2000/svg" xmlns:xlink="http://www.w3.org/1999/xlink" x="0px" y="0px"
	 viewBox="0 0 220.5 88.4" style="enable-background:new 0 0 220.5 88.4;" xml:space="preserve">
<style type="text/css">
	.st0{fill:#FFFFFF;}
	.st1{fill:#8ecc5a;}
</style>
<g>
	<path class="st0" d="M33,88h-7.3l-3-6l0.4-0.6H9.8l0.4,0.6l-2.9,6H0l13.7-27.6h5.6L33,88z M20.4,76.3l-0.7-0.6l-2.1-4.3l-1-2.8
		l-1,2.8l-2.1,4.3l-0.7,0.6H20.4z"/>
	<rect x="35.9" y="59.4" class="st0" width="6.5" height="28.6"/>
	<path class="st0" d="M63.9,84.9c-2.4,2.2-4.4,3.4-7.5,3.4c-5.2,0-7.6-2.6-7.6-7.7v-8.4l0.3-0.6h-3.3v-5.1h3.3L48.8,66v-2.1l6.5-3.4
		V66L55,66.5h6.6v5.1H55l0.3,0.6v8.4c0,1.6,0.8,2.3,1.9,2.3c1.1,0,2-0.5,3-1.6L63.9,84.9z"/>
	<path class="st0" d="M69.8,65.4c-2,0-3.4-1.5-3.4-3.5c0-2,1.4-3.5,3.4-3.5c2,0,3.4,1.5,3.4,3.5C73.2,63.9,71.8,65.4,69.8,65.4
		 M73.1,88h-6.5V66.5h6.5V88z"/>
	<path class="st0" d="M88.1,88.4c-4.2,0-7.4-1.2-11-4.1l3.9-4c1.9,1.9,4.5,2.9,7,2.9c2.8,0,3.8-0.7,3.8-1.4c0-0.6-0.3-1.1-2.5-1.5
		c-0.4-0.1-3.4-0.9-3.9-1c-3.6-0.9-7.8-2.4-7.8-6.5c0-3.9,3.8-6.6,10-6.6c4.1,0,7.5,1.4,10,3.8l-3.8,3.8c-1.6-1.5-3.9-2.4-6.2-2.4
		c-2.8,0-3.5,0.8-3.5,1.4c0,0.8,1.1,1.1,3.5,1.6c0.4,0.1,3,0.8,3.4,0.9c4.6,1.1,7.2,2.8,7.2,6.2C98.4,85.3,94.9,88.4,88.1,88.4"/>
	<path class="st0" d="M113.1,88.4c-7.9,0-11.8-4.9-11.8-11.1c0-6.2,4-11.1,11.8-11.1c7.9,0,11.9,4.8,11.9,11.1
		C125,83.4,120.9,88.4,113.1,88.4 M113.1,71.8c-3.7,0-5.3,2.1-5.3,5.5c0,3.4,1.6,5.6,5.3,5.6c3.7,0,5.3-2.1,5.3-5.6
		C118.4,73.9,116.8,71.8,113.1,71.8"/>
	<path class="st0" d="M150.7,88.1h-6.5v-1.8h-0.1c-1.3,1.3-3.4,2.1-5.7,2.1c-6.6,0-9.7-3.5-9.7-8.8v-13h6.5v12.5
		c0,2.5,1.4,3.8,4.2,3.8c2.9,0,4.7-1.4,4.7-3.8V66.5h6.5V88.1z"/>
	<path class="st0" d="M169.8,71.9h-1.9c-4,0-5.7,1.9-5.7,5.5V88h-6.5V66.5h6.5v2.6h0.1c1.2-1.8,3.2-2.8,6.2-2.8h1.3V71.9z"/>
	<path class="st0" d="M192.9,84.7c-2,2.1-5.5,3.7-9.3,3.7c-8,0-11.9-4.9-11.9-10.9c0-6.2,4.3-11.2,12-11.2c4.3,0,7.2,1.5,9.1,3.5
		l-4.2,4.2c-1.4-1.5-2.8-2.2-4.9-2.2c-3.6,0-5.5,2.4-5.5,5.7c0,3.2,1.6,5.4,5.4,5.4c2.1,0,3.8-0.9,5.2-2.3L192.9,84.7z"/>
	<path class="st0" d="M218.7,79.7h-17.1l0.6,0.6c1,1.6,2.9,2.9,5.3,2.9c2.2,0,3.9-0.6,5.4-1.8l3.7,3.8c-2.4,2.1-5.3,3.2-9.1,3.2
		c-8.2,0-12.3-4.8-12.3-10.9c0-6.4,4.4-11.2,11.9-11.2c7.8,0,11.8,5,11.8,11.2C218.8,78.1,218.8,78.9,218.7,79.7 M212.3,74.6
		l-0.6-0.6c-0.9-1.6-2.4-2.7-4.7-2.7c-2.3,0-3.9,1.1-4.7,2.7l-0.6,0.6H212.3z"/>
	<polygon class="st1" points="169.4,0.2 143.9,0.2 143.9,14.2 109.8,0 14.2,39.6 14.2,46.2 109.8,6.5 205.4,46.2 205.4,39.6 
		169.4,24.7 	"/>
	<path class="st0" d="M218.1,66.6c-1.3,0-2.4-1.1-2.4-2.4c0-1.3,1.1-2.4,2.4-2.4c1.3,0,2.4,1.1,2.4,2.4
		C220.5,65.5,219.4,66.6,218.1,66.6 M218.1,62.5c-0.9,0-1.7,0.8-1.7,1.8c0,0.9,0.8,1.8,1.7,1.8c1,0,1.7-0.8,1.7-1.8
		C219.8,63.3,219.1,62.5,218.1,62.5 M219.2,65.5h-0.7l-0.3-0.7c-0.1-0.2-0.1-0.2-0.3-0.2h-0.3v0.9h-0.6V63h1.1
		c0.5,0,0.9,0.3,0.9,0.8c0,0.2-0.3,0.5-0.5,0.6c0.1,0.1,0.2,0.1,0.3,0.3L219.2,65.5z M218.2,63.6h-0.5V64h0.5c0.2,0,0.3-0.1,0.3-0.2
		C218.5,63.6,218.4,63.6,218.2,63.6"/>
</g>
</svg>
